<svg width="146" height="21" viewBox="0 0 146 21" fill="none" xmlns="http://www.w3.org/2000/svg">
<path d="M124.642 9.90336C125.497 9.90336 126.218 9.36918 126.398 8.62954C127.298 5.58878 130.315 3.36985 133.961 3.36985V0.000371803C128.649 -0.0407195 124.147 3.32876 122.841 7.8488C122.526 8.87608 123.427 9.90336 124.642 9.90336Z" fill="#1C315E"/>
<path d="M143.324 10.9716C142.469 10.9716 141.749 11.5058 141.569 12.2454C141.209 13.5192 140.488 14.6698 139.498 15.5327C139.318 15.6971 139.138 15.8614 138.958 15.9847C138.958 15.9847 138.913 15.9847 138.913 16.0258C138.732 16.1491 138.552 16.2723 138.372 16.3956C138.327 16.4367 138.282 16.4367 138.237 16.4778C138.057 16.56 137.877 16.6833 137.742 16.7654C137.697 16.8065 137.607 16.8065 137.517 16.8476C137.337 16.9298 137.202 17.012 137.022 17.0531C136.932 17.0942 136.842 17.0942 136.797 17.1353C136.662 17.1764 136.482 17.2585 136.301 17.2996C136.166 17.3407 136.076 17.3407 135.941 17.3818C135.806 17.4229 135.671 17.464 135.536 17.464C135.401 17.5051 135.266 17.5051 135.131 17.5051C134.996 17.5051 134.906 17.5462 134.771 17.5462C134.501 17.5873 134.276 17.5873 134.005 17.5873C134.005 17.5873 134.005 17.5873 133.96 17.5873C133.69 17.5873 133.42 17.5873 133.15 17.5462C133.06 17.5462 132.97 17.5051 132.925 17.5051C132.745 17.464 132.565 17.464 132.385 17.4229C132.25 17.3818 132.16 17.3818 132.025 17.3407C131.89 17.2996 131.755 17.2996 131.619 17.2585C131.484 17.2174 131.349 17.1764 131.214 17.1353C131.124 17.0942 130.989 17.0531 130.899 17.012C130.764 16.9709 130.584 16.8887 130.449 16.8065C130.359 16.7654 130.314 16.7243 130.224 16.7243C130.044 16.6422 129.909 16.56 129.729 16.4778C129.684 16.4367 129.639 16.4367 129.549 16.3956C129.369 16.2723 129.188 16.1902 129.053 16.0669C129.008 16.0258 129.008 16.0258 128.963 15.9847C128.783 15.8614 128.603 15.6971 128.423 15.5327C128.423 15.5327 128.423 15.5327 128.378 15.4916C128.198 15.3272 128.018 15.1629 127.883 14.9985C126.847 13.848 126.172 12.3687 126.127 10.7661H122.436C122.526 13.5603 123.786 16.0669 125.767 17.8749C125.767 17.8749 125.767 17.8749 125.812 17.8749C126.082 18.1215 126.307 18.3269 126.622 18.5324C126.667 18.5735 126.667 18.5735 126.712 18.6145C126.982 18.82 127.208 18.9844 127.478 19.1487C127.523 19.1898 127.613 19.2309 127.658 19.272C127.883 19.4364 128.153 19.5596 128.423 19.6829C128.513 19.724 128.648 19.7651 128.738 19.8062C128.963 19.9295 129.188 20.0116 129.414 20.0938C129.549 20.1349 129.729 20.2171 129.864 20.2582C130.044 20.3404 130.269 20.3815 130.449 20.4637C130.674 20.5047 130.854 20.5458 131.079 20.628C131.214 20.6691 131.394 20.7102 131.529 20.7513C131.8 20.7924 132.115 20.8335 132.43 20.8746C132.52 20.8746 132.61 20.9157 132.7 20.9157C133.105 20.9567 133.465 20.9567 133.87 20.9567C134.636 20.9567 135.356 20.8746 136.031 20.7513C136.256 20.7102 136.482 20.6691 136.752 20.5869C139.858 19.8473 142.469 17.9571 144 15.4505C144.135 15.204 144.27 14.9985 144.36 14.752C144.63 14.1767 144.855 13.6014 145.035 12.944C145.395 11.9989 144.495 10.9716 143.324 10.9716Z" fill="#1C315E"/>
<path d="M141.298 2.38371C141.253 2.38371 141.253 2.34261 141.208 2.34261C140.938 2.13716 140.668 1.97279 140.398 1.80843C140.353 1.80843 140.353 1.76734 140.308 1.76734C140.038 1.60297 139.723 1.4386 139.453 1.27424C139.137 1.10987 138.777 0.945513 138.462 0.822239C138.327 0.781148 138.237 0.740055 138.102 0.698964C137.877 0.616781 137.652 0.534596 137.382 0.452414C137.247 0.411322 137.112 0.411324 136.977 0.370232C136.751 0.329141 136.481 0.246961 136.256 0.20587C136.076 0.164778 135.896 0.16478 135.716 0.123688C135.491 0.0825971 135.311 0.0415039 135.086 0.0415039C135.041 0.0415039 134.951 0.0415039 134.906 0.0415039V3.45208C137.202 3.73972 139.182 4.89027 140.398 6.53392C140.803 7.1092 141.163 7.72557 141.388 8.38303C141.433 8.46521 141.433 8.5474 141.478 8.67067C141.524 8.79394 141.568 8.95831 141.614 9.08158C141.614 9.16376 141.659 9.24595 141.659 9.32813C141.704 9.57468 141.749 9.86232 141.749 10.1089H145.44C145.35 6.98593 143.774 4.23282 141.298 2.38371Z" fill="#1C315E"/>
<path d="M115.652 4.51766C115.561 4.35034 115.469 4.18302 115.377 4.0157C114.232 1.96602 112.123 0.543794 109.694 0.125492C109.19 0.0418315 108.64 0 108.09 0C105.524 0 102.912 0 100.345 0C100.3 0 100.254 0 100.162 0V5.6889C100.162 6.651 100.987 7.40394 102.041 7.40394C103.095 7.40394 103.92 6.651 103.92 5.6889V3.47191C104.47 3.47191 105.02 3.47191 105.57 3.47191C106.395 3.47191 107.22 3.47191 108.09 3.47191C110.153 3.47191 111.894 4.76864 112.353 6.56734C112.398 6.77649 112.444 6.98564 112.444 7.19479C112.444 7.23662 112.444 7.27845 112.444 7.27845C112.444 7.4876 112.444 7.65493 112.398 7.86408C112.398 7.90591 112.398 7.94774 112.398 7.94774C112.353 8.15689 112.307 8.32421 112.261 8.53336C112.215 8.74251 112.123 8.90983 112.032 9.11898C112.032 9.11898 112.032 9.11898 112.032 9.16081C111.94 9.32813 111.803 9.53728 111.711 9.7046C111.711 9.7046 111.711 9.70461 111.665 9.74644C111.253 10.2484 110.703 10.7085 110.061 11.0013L111.894 14.0968C112.032 14.0131 112.123 13.9713 112.261 13.8876C112.444 13.7621 112.673 13.6366 112.857 13.5112C116.019 11.5033 117.165 7.69676 115.652 4.51766Z" fill="#1C315E"/>
<path d="M114.552 18.4471C114.369 18.1543 114.185 17.8196 114.002 17.485C113.315 16.3556 112.627 15.2262 111.94 14.0549C111.94 14.0549 111.94 14.0549 111.985 14.0549L110.152 10.9595C109.832 11.085 109.511 11.2105 109.144 11.2941C108.823 11.3359 108.503 11.3778 108.182 11.3778C107.219 11.3778 106.257 11.3778 105.249 11.3778V14.8497C106.119 14.8497 107.036 14.8497 107.907 14.8497C108.044 14.8497 108.09 14.8915 108.136 14.9752C109.327 16.9412 110.473 18.8654 111.665 20.8314C111.711 20.9151 111.756 20.9569 111.848 20.9569C113.177 20.9569 114.552 20.9569 115.881 20.9569C115.927 20.9569 115.973 20.9569 116.018 20.9569C115.514 20.1203 115.01 19.2837 114.552 18.4471Z" fill="#1C315E"/>
<path d="M102.132 8.5752C101.078 8.5752 100.253 9.32814 100.253 10.2902V19.2001C100.253 20.1622 101.078 20.9151 102.132 20.9151C103.186 20.9151 104.011 20.1622 104.011 19.2001V10.2902C104.011 9.32814 103.14 8.5752 102.132 8.5752Z" fill="#1C315E"/>
<path d="M93.9933 0C92.1565 0 90.2737 2.55759e-06 88.4369 0.0419164C87.1052 0.0838302 84.9929 0.544885 83.7989 1.13168C81.0437 2.43101 79.161 4.35904 78.1967 6.83196C78.1048 6.99961 78.0589 7.29301 77.967 7.58641C77.6915 8.67617 78.564 9.72402 79.8039 9.72402C80.6304 9.72402 81.4111 9.22105 81.6407 8.4666C81.7784 8.04746 81.9162 7.62832 82.054 7.37684C82.4213 6.74813 82.8805 6.16134 83.4775 5.61646C84.947 4.27522 86.6919 3.56268 88.7583 3.52077C90.4574 3.47885 92.1105 3.52077 93.8096 3.52077C93.9014 3.52077 93.9474 3.52077 94.0392 3.52077C94.0392 2.34718 94.0392 1.2155 94.0392 0.0419164C93.9933 0.0419164 93.9933 0 93.9933 0Z" fill="#1C315E"/>
<path d="M88.2994 9.5985C89.2637 11.2331 87.4729 12.9097 85.682 11.9876C85.4524 11.8618 85.2227 11.6942 85.085 11.4427C84.1206 9.80806 85.9115 8.13151 87.7024 9.05361C87.978 9.17936 88.2076 9.38893 88.2994 9.5985Z" fill="#1C315E"/>
<path d="M90.3652 17.478V20.9569H94.0389V13.6639C94.0389 12.7418 93.2123 11.9873 92.2021 11.9873C91.1918 11.9873 90.3652 12.7418 90.3652 13.6639V17.478Z" fill="#1C315E"/>
<path d="M89.3095 17.478C89.1717 17.478 89.034 17.478 88.9421 17.478C88.7585 17.478 88.5748 17.478 88.437 17.478C88.2074 17.478 88.0237 17.436 87.7941 17.3941C87.6104 17.3522 87.3809 17.3103 87.1972 17.2684C85.59 16.9331 84.2583 16.1786 83.1562 15.005C82.9725 14.8374 82.8347 14.6278 82.697 14.4602C82.6511 14.3763 82.6051 14.3344 82.5592 14.2506C82.4674 14.1248 82.3755 13.9991 82.3296 13.9153C82.2837 13.8315 82.1918 13.7057 82.1459 13.6219C82.1 13.538 82.0541 13.4542 82.0082 13.3285C81.9622 13.2027 81.8704 13.077 81.8245 12.9513C81.8245 12.9093 81.7786 12.8674 81.7786 12.8255C81.503 12.113 81.3653 11.4004 81.3653 10.646H77.462C77.462 10.9394 77.462 11.1909 77.5079 11.4424V11.4843C77.5539 11.7777 77.5998 12.0711 77.6457 12.3645C77.6457 12.3645 77.6457 12.3645 77.6457 12.4064C77.6916 12.6579 77.7835 12.9093 77.8294 13.1608C77.8294 13.2027 77.8753 13.2866 77.8753 13.3285C77.9672 13.58 78.059 13.8314 78.1508 14.0829C78.656 15.3823 79.4366 16.5558 80.401 17.5199C80.7683 17.8971 81.2275 18.2743 81.6408 18.6096C82.1 18.9449 82.5592 19.2383 83.0643 19.4898C83.5695 19.7413 84.0746 19.9928 84.6256 20.2024C85.9573 20.6634 87.3808 20.9568 88.8503 20.9568H88.8962H88.9421C89.034 20.9568 89.1717 20.9568 89.2636 20.9568V17.478H89.3095Z" fill="#678983"/>
<path d="M55.2073 14.8495L59.0111 14.8913V11.4194C56.903 11.4194 55.2073 12.9253 55.2073 14.8495Z" fill="#1C315E"/>
<path d="M57.1325 0C58.1865 0 59.0114 0.752944 59.0114 1.71504V4.39216C59.0114 5.35425 58.1865 6.1072 57.1325 6.1072C56.0784 6.1072 55.2534 5.35425 55.2534 4.39216V1.71504C55.2076 0.794774 56.0784 0 57.1325 0Z" fill="#1C315E"/>
<path d="M71.3391 7.78056C71.3391 7.57141 71.3391 7.40409 71.3391 7.19494C71.3391 7.15311 71.3391 7.06945 71.3391 7.02762C71.3391 6.90213 71.2933 6.73481 71.2933 6.60932C71.2933 6.52566 71.2933 6.48383 71.2475 6.40017C71.2016 6.27468 71.2016 6.10736 71.1558 5.98187C71.1558 5.94004 71.11 5.85638 71.11 5.81455C71.0642 5.6054 71.0183 5.39625 70.9267 5.1871C70.9267 5.14527 70.8809 5.10344 70.8809 5.0616C70.7434 4.72696 70.6059 4.39232 70.4226 4.05768C70.4226 4.01585 70.3767 3.97402 70.3767 3.97402C69.3685 2.17532 67.5812 0.920423 65.5189 0.334802C64.7856 0.125651 64.0523 0.0419922 63.2733 0.0419922C63.2274 0.0419922 63.1816 0.0419922 63.09 0.0419922C62.1276 0.0419922 61.1652 0.0419922 60.2028 0.0419922V3.51389H61.211C61.8526 3.51389 62.4942 3.51389 63.1816 3.51389C64.0065 3.51389 64.7398 3.72304 65.3814 4.05768C65.748 4.26683 66.1146 4.51781 66.4354 4.85245C66.8937 5.35442 67.2604 5.94004 67.4437 6.65115C67.4895 6.81847 67.4895 6.98579 67.5353 7.15311C67.5353 7.19494 67.5353 7.23677 67.5353 7.2786C67.5353 7.44592 67.5353 7.61324 67.5353 7.78056H71.3391Z" fill="#1C315E"/>
<path d="M55.2073 14.8916C55.2073 16.9413 55.2073 18.9491 55.2073 20.957C56.4905 20.957 57.7279 20.957 59.0111 20.957C59.0111 18.9073 59.0111 16.8994 59.0111 14.8916H55.2073Z" fill="#1C315E"/>
<path d="M67.2146 8.82617C66.7105 10.0811 65.4731 11.085 63.9607 11.336C63.7316 11.3778 63.4566 11.4196 63.2275 11.4196C61.9443 11.4196 60.7069 11.4196 59.4237 11.4196H58.9655V14.8915C59.0571 14.8915 59.1029 14.8915 59.1946 14.8915C60.4778 14.8915 61.761 14.8915 63.0442 14.8915C63.4566 14.8915 63.9149 14.8497 64.3274 14.8079C66.0689 14.5569 67.5812 13.8876 68.8186 12.7582C70.1018 11.587 70.8809 10.2484 71.1559 8.82617H67.2146Z" fill="#1C315E"/>
<path d="M47.175 0C46.1293 0 45.2655 0.788477 45.2655 1.74295C45.2655 3.4029 45.2655 5.60235 45.2655 7.2623C45.2655 8.21677 46.1293 9.00525 47.175 9.00525C48.2208 9.00525 49.0846 8.21677 49.0846 7.2623C49.0846 5.60235 49.0846 3.4029 49.0846 1.74295C49.0846 0.788477 48.2208 0 47.175 0Z" fill="#1C315E"/>
<path d="M45.265 13.5699C45.265 13.8189 45.265 14.0679 45.2195 14.3169C44.9922 15.8108 43.7646 17.0143 42.2643 17.4293C41.4913 17.6783 40.9458 18.3007 40.9458 19.0477C40.9458 20.1682 42.0824 20.9982 43.2645 20.7077C43.5373 20.6662 43.7192 20.6247 43.7647 20.5832C43.992 20.5002 44.1739 20.4172 44.3557 20.3342C47.2201 19.1307 49.0387 16.5163 49.0387 13.5699C49.0387 12.3664 49.0387 11.2044 49.0387 10.001H45.265C45.265 11.2459 45.265 12.4079 45.265 13.5699Z" fill="#678983"/>
<path d="M39.9915 17.471C39.9461 17.471 39.9006 17.471 39.9006 17.471C37.9911 16.973 36.6726 15.4376 36.6726 13.6116C36.6726 9.12975 36.6726 4.68937 36.6726 0.207494C36.6726 0.124497 36.6726 0.0829977 36.6726 0C35.3995 0 34.1719 0 32.9443 0C32.9443 0.0829977 32.9443 0.124494 32.9443 0.165993C32.9443 4.64787 32.9443 9.08825 32.9443 13.5701C32.9443 13.9851 32.9898 14.3586 33.0353 14.7321C33.2172 15.9356 33.7173 17.0145 34.4902 17.969C35.8087 19.629 37.8547 20.6664 40.037 20.9569V17.471H39.9915Z" fill="#1C315E"/>
<path d="M9.91138 9.91377V20.9569H13.6693V9.91377C13.6693 8.95168 12.8444 8.19873 11.7903 8.19873C10.7821 8.19873 9.91138 8.95168 9.91138 9.91377Z" fill="#1C315E"/>
<path d="M23.0177 1.75687V8.78434L26.8215 13.7203V1.75687C26.8215 0.794773 25.9507 0 24.8967 0C23.8426 0 23.0177 0.794773 23.0177 1.75687Z" fill="#1C315E"/>
<path d="M12.8446 0C11.928 0 11.0114 0 10.0948 0C10.049 0 10.0032 0 9.9115 0C9.9115 2.30066 9.9115 4.60132 9.9115 6.86015H13.6694C13.7153 6.94381 13.7611 6.98564 13.8069 7.02747C17.3816 11.6288 20.9104 16.2301 24.4851 20.8314C24.5309 20.9151 24.6226 20.9569 24.7142 20.9569C25.3558 20.9569 25.9974 20.9569 26.639 20.9569C26.6848 20.9569 26.7307 20.9569 26.7765 20.9569C26.7765 19.8693 26.7765 18.7818 26.7765 17.6942C26.7765 17.6942 16.0984 3.84838 13.0737 0.125492C13.0737 1.27157e-06 12.982 0 12.8446 0Z" fill="#1C315E"/>
<path d="M1.91334 20.9567C2.98668 20.9567 3.8267 20.2528 3.8267 19.3534V4.61035H0V19.3534C0 20.2528 0.839995 20.9567 1.91334 20.9567Z" fill="#1C315E"/>
<path d="M0.0310059 0C0.0310059 1.17124 0.0310059 2.34249 0.0310059 3.4719H3.78897C3.78897 2.30066 3.78897 1.12941 3.78897 0C2.55159 0 1.26838 0 0.0310059 0Z" fill="#678983"/>
</svg>
